<!-- icon666.com - MILLIONS OF FREE VECTOR ICONS --><svg clip-rule="evenodd" fill-rule="evenodd" image-rendering="optimizeQuality" shape-rendering="geometricPrecision" text-rendering="geometricPrecision" viewBox="0 0 850 850" xmlns="http://www.w3.org/2000/svg" xmlns:xlink="http://www.w3.org/1999/xlink"><linearGradient id="id0" gradientUnits="userSpaceOnUse" x1="425" x2="425" y1="850" y2="0"><stop offset="0" stop-color="#1aa8dc"></stop><stop offset=".490196" stop-color="#ae3b89"></stop><stop offset="1" stop-color="#f26270"></stop></linearGradient><g id="Layer_x0020_1"><circle cx="425" cy="425" fill="url(#id0)" r="425"></circle><g fill="#fff"><path d="m244 595c-1 0-3 0-4-1-55-29-62-66-62-68v-1-72c0-2 0-4 2-5 1-2 3-2 5-2 38 4 54-10 54-10 3-3 7-3 9 0 1 0 16 14 54 10 2 0 4 0 5 2 2 1 3 3 3 5v72 1c-1 2-8 39-63 68-1 1-2 1-3 1zm-14-52c-2 0-4-1-5-2l-16-16c-3-3-3-7 0-10s7-3 10 0l11 11 38-38c3-3 7-3 10 0s3 7 0 10l-43 43c-1 1-3 2-5 2z"></path><path d="m665 681h-480c-4 0-7-3-7-7v-37c0-4 3-7 7-7h480c4 0 7 3 7 7v37c0 4-3 7-7 7z"></path><path d="m361 616v-440c0-4 3-7 7-7h273c3 0 7 3 7 7v440h-64v-134c0-10-9-18-18-18h-64-63c-10 0-18 8-18 18v134zm242-186h-41c-4 0-7-3-7-7v-33c0-4 3-7 7-7h41c4 0 7 3 7 7v33c0 4-3 7-7 7zm-34-14h27v-19h-27zm-44 14h-41c-4 0-7-3-7-7v-33c0-4 3-7 7-7h41c4 0 7 3 7 7v33c0 4-3 7-7 7zm-34-14h27v-19h-27zm-44 14h-41c-4 0-7-3-7-7v-33c0-4 3-7 7-7h41c4 0 7 3 7 7v33c0 4-3 7-7 7zm-34-14h27v-19h-27zm190-48h-41c-4 0-7-3-7-7v-33c0-4 3-7 7-7h41c4 0 7 3 7 7v33c0 4-3 7-7 7zm-34-14h27v-19h-27zm-44 14h-41c-4 0-7-3-7-7v-33c0-4 3-7 7-7h41c4 0 7 3 7 7v33c0 4-3 7-7 7zm-34-14h27v-19h-27zm-44 14h-41c-4 0-7-3-7-7v-33c0-4 3-7 7-7h41c4 0 7 3 7 7v33c0 4-3 7-7 7zm-34-14h27v-19h-27zm190-48h-41c-4 0-7-3-7-7v-33c0-4 3-7 7-7h41c4 0 7 3 7 7v33c0 4-3 7-7 7zm-34-14h27v-19h-27zm-44 14h-41c-4 0-7-3-7-7v-33c0-4 3-7 7-7h41c4 0 7 3 7 7v33c0 4-3 7-7 7zm-34-14h27v-19h-27zm-44 14h-41c-4 0-7-3-7-7v-33c0-4 3-7 7-7h41c4 0 7 3 7 7v33c0 4-3 7-7 7zm-34-14h27v-19h-27zm190-48h-41c-4 0-7-3-7-7v-33c0-4 3-7 7-7h41c4 0 7 3 7 7v33c0 4-3 7-7 7zm-34-14h27v-19h-27zm-44 14h-41c-4 0-7-3-7-7v-33c0-4 3-7 7-7h41c4 0 7 3 7 7v33c0 4-3 7-7 7zm-34-14h27v-19h-27zm-44 14h-41c-4 0-7-3-7-7v-33c0-4 3-7 7-7h41c4 0 7 3 7 7v33c0 4-3 7-7 7zm-34-14h27v-19h-27zm157 386h-61v-138h57c2 0 4 2 4 4zm-75 0h-60v-134c0-2 1-4 4-4h56z"></path><path d="m202 616v-30c10 8 21 15 32 21 3 1 6 2 10 2 3 0 6-1 9-2 23-11 44-27 57-48 6-9 11-20 13-30 1-3 1-3 1-4v-72c0-6-3-12-8-16-4-4-10-6-15-5-11 1-23 1-34-2-2-1-7-3-9-5-8-7-20-7-28 0-3 2-7 4-10 5-6 1-12 2-18 3v-163c0-4 3-7 7-7h138v353zm121-203h-97c-4 0-7-3-7-7v-37c0-4 3-7 7-7h97c3 0 7 3 7 7v37c0 4-4 7-7 7zm-90-14h83v-23h-83zm90-55h-97c-4 0-7-3-7-7v-37c0-4 3-7 7-7h97c3 0 7 3 7 7v37c0 4-4 7-7 7zm-90-14h83v-23h-83z"></path></g></g></svg>