<!-- icon666.com - MILLIONS OF FREE VECTOR ICONS --><svg id="Layer_1" enable-background="new 0 0 512 512" viewBox="0 0 512 512" xmlns="http://www.w3.org/2000/svg" xmlns:xlink="http://www.w3.org/1999/xlink"><linearGradient id="SVGID_1_" gradientUnits="userSpaceOnUse" x1="256" x2="256" y1="0" y2="512"><stop offset="0" stop-color="#01f1fe"></stop><stop offset="1" stop-color="#4fadfe"></stop></linearGradient><path d="m379.466 358.44c-39.29 8.669-80.77 13.06-123.467 13.06s-84.177-4.391-123.467-13.06c6.497-52.349 45.521-95.323 97.839-106.274l-.378-1.805c8.152 2.846 16.898 4.412 26.008 4.412 9.109 0 17.855-1.566 26.007-4.411l-.378 1.805c52.317 10.951 91.339 53.925 97.836 106.273zm-123.465-127.668c30.402 0 55.136-24.734 55.136-55.136s-24.733-55.136-55.136-55.136-55.136 24.734-55.136 55.136c.001 30.402 24.734 55.136 55.136 55.136zm255.999 25.228c0 141.159-114.841 256-256 256s-256-114.841-256-256 114.84-256 256-256 256 114.841 256 256zm-107.727 111.262c-2.664-60.074-41.068-111.702-96.002-132.283 16.457-14.512 26.866-35.729 26.866-59.344 0-43.636-35.5-79.136-79.136-79.136s-79.136 35.5-79.136 79.136c0 23.614 10.409 44.831 26.865 59.343-54.936 20.58-93.341 72.208-96.005 132.284-.254 5.736 3.59 10.848 9.171 12.196 44.069 10.645 90.87 16.042 139.104 16.042s95.034-5.397 139.103-16.042c5.58-1.348 9.424-6.46 9.17-12.196z" fill="url(#SVGID_1_)"></path></svg>